<?xml version="1.0" encoding="utf-8"?>
<!-- Generator: Adobe Illustrator 18.1.0, SVG Export Plug-In . SVG Version: 6.00 Build 0)  -->
<!DOCTYPE svg PUBLIC "-//W3C//DTD SVG 1.1//EN" "http://www.w3.org/Graphics/SVG/1.1/DTD/svg11.dtd">
<svg version="1.1" id="Layer_1" xmlns="http://www.w3.org/2000/svg" xmlns:xlink="http://www.w3.org/1999/xlink" x="0px" y="0px"
	 viewBox="196 280 266.1 266.1" style="enable-background:new 196 280 266.1 266.1;" xml:space="preserve">
<g id="DVBPtw_1_">
	<g>
		<path style="fill:#FFFFFF;" d="M196,280c88.7,0,177.4,0,266.1,0c0,88.7,0,177.4,0,266.1c-88.7,0-177.4,0-266.1,0
			C196,457.3,196,368.7,196,280z M196.5,501.4c14.8,14.8,29.4,29.4,44.2,44.2c29.2-29.2,58.6-58.6,88.2-88.2
			c29.5,29.5,58.9,58.9,88,88c14.7-14.7,29.4-29.4,44.2-44.2c-29.2-29.2-58.6-58.6-88.2-88.2c29.5-29.5,58.9-58.9,88-88
			c-14.7-14.7-29.4-29.4-44.2-44.2c-29.2,29.2-58.6,58.6-88.2,88.2c-29.5-29.5-58.9-58.9-88-88c-14.7,14.7-29.4,29.4-44.2,44.2
			c29.2,29.2,58.6,58.6,88.2,88.2C255.1,442.8,225.7,472.2,196.5,501.4z"/>
		<path d="M196.5,501.4c29.2-29.2,58.6-58.6,88.1-88c-29.6-29.6-59-59-88.2-88.2c14.8-14.8,29.5-29.5,44.2-44.2
			c29.2,29.2,58.6,58.6,88,88c29.6-29.6,59-59,88.2-88.2c14.9,14.9,29.5,29.5,44.2,44.2c-29.2,29.2-58.6,58.6-88,88
			c29.6,29.6,59,59,88.2,88.2c-14.9,14.9-29.5,29.5-44.2,44.2c-29.2-29.2-58.6-58.6-88-88c-29.6,29.6-59,59-88.2,88.2
			C225.9,530.8,211.3,516.1,196.5,501.4z"/>
	</g>
</g>
</svg>
