<svg xmlns="http://www.w3.org/2000/svg" viewBox="705.1 608.4 30.7 20.2" enable-background="new 705.1 608.4 30.7 20.2"><g><path d="M734.7 619.3c0 .2 0 .4-.1.6-.2 1.6-1.3 2.9-2.7 3.2-.2.1-.5.1-.7.1h-9.5c-.3 0-.5-.2-.5-.5v-12.6c0-.3.1-.4.3-.5.5-.2 1.1-.4 1.6-.5.2 0 .3 0 .5-.1h.4c.4 0 .8.1 1.2.2 1.3.4 2.3 1.1 3.1 2.3.7 1 1.2 2.1 1.4 3.4l.1.6h.1c.7-.3 1.4-.4 2.1-.1 1.4.5 2.2 1.5 2.5 3.2 0 .2 0 .4.1.6.1 0 .1 0 .1.1zM706.4 619.4c0-.2.1-.4.1-.7l.1-1c0-.1 0-.2.1-.2s.1.1.1.1c.1.6.2 1.1.2 1.7 0 .2 0 .5-.1.7l-.1 1.1v.1l-.1.1-.1-.1c0-.2 0-.3-.1-.5l-.1-1.2v-.1zM720 615.8c0-1.4 0-2.5.1-3.5v-1.8c0-.2.2-.4.4-.4s.4.2.4.4v2.2l.1 5.6c0 .9 0 1.8-.1 2.7l-.1 1.8c0 .3-.2.4-.4.5-.2 0-.4-.2-.4-.4l-.1-2.1c0-1.9.1-3.7.1-5zM719.7 615.4c0 1 0 1.9.1 2.9 0 1.1 0 2.3-.1 3.4v1c0 .2-.2.4-.3.4-.2 0-.3-.2-.4-.4l-.1-3.1v-3.8c0-1.2 0-2.4.1-3.5v-1.1c0-.2.1-.4.3-.4.2 0 .3.2.3.4 0 1.3 0 2.6.1 3.9v.3zM718.5 616c0 1.1.1 2.2.1 3.4v1l-.1 1.5v.9c0 .2-.2.4-.3.4-.2 0-.3-.2-.3-.4 0-.5 0-1-.1-1.5l-.1-1.8v-2.4000000000000004c0-.9 0-1.8.1-2.6v-1.9c0-.2.1-.4.3-.4.2 0 .3.2.3.4 0 1.1.1 2.2.1 3.4zM716.5 616c0-1.1 0-2.2.1-3.4v-.4c0-.2.1-.3.3-.3.2 0 .3.1.3.3v1.2l.1 3.9.1 2c0 .5 0 .9-.1 1.4l-.1 1.9v.2c0 .2-.1.3-.3.3-.2 0-.3-.1-.3-.3l-.1-1.7-.1-1.7v-2.8c.1-.1.1-.3.1-.6zM715.4 616.4c0-1 0-2 .1-3.1v-1.2c0-.2.1-.4.3-.3.2 0 .3.1.3.4l.1 3.4.1 3.8c0 .5 0 1-.1 1.5l-.1 1.7v.3c0 .2-.1.3-.3.3-.1 0-.3-.1-.3-.3 0-.3 0-.7-.1-1 0-.8-.1-1.6-.1-2.3v-1.8l.1-1.4zM714.2 615.9c0-.8 0-1.9.1-3v-.6c0-.2.1-.3.2-.3s.2.1.2.3c0 .7 0 1.4.1 2.1l.1 3.3v1.8c0 .4 0 .9-.1 1.3l-.1 1.6v.6c0 .2-.1.3-.3.3-.1 0-.2-.1-.2-.3l-.1-2.4c0-.3 0-.6-.1-1v-.9c.2-.9.2-1.7.2-2.8zM713.1 616.3l.1-3.4c0-.2.1-.3.2-.3s.2.1.2.3v.5l.1 2.8.1 3.1c0 .4 0 .7-.1 1.1l-.1 1.5c0 .3 0 .7-.1 1 0 .2-.1.3-.2.3s-.2-.1-.2-.3l-.1-1.4-.1-2.1v-.2c0-.8 0-1.7.1-2.5.1-.1.1-.2.1-.4zM711.9 619.4c0-.8.1-1.6.1-2.5 0-.6 0-1.2.1-1.8v-1.1c0-.1.1-.2.2-.2s.2.1.2.2v.4l.2 3.7v1c0 .4 0 .9-.1 1.3l-.1 1.7v.6c0 .1-.1.2-.2.2s-.2-.1-.2-.2l-.1-2.1-.1-1.2zM711.6 619.5l-.1 1.4-.1 1.9v.2c0 .1-.1.2-.2.2s-.2 0-.2-.2v-.5l-.2-2.9v-1l.1-1.4c0-.3 0-.7.1-1 0-.2.1-.3.3-.2.1 0 .1.1.1.2l.1 1.3.1 1.8v.2zM710.5 619.4l-.1 1.2-.1 1.8v.5c0 .1-.1.2-.2.2s-.2-.1-.2-.2v-.7l-.2-2.7v-.8l.1-1.8c0-.3 0-.7.1-1 0-.1.1-.2.2-.2s.1.1.2.2c.1 1 .2 2 .2 3.1-.1.1-.1.3 0 .4zM708.5 619.5c0-.3 0-.7.1-1l.1-1.6c0-.3 0-.6.1-.8 0-.1 0-.2.1-.2s.1.1.1.1l.1.9.2 1.9c.1.5 0 .9 0 1.4-.1.6-.1 1.2-.2 1.9 0 .2 0 .4-.1.6 0 .1 0 .2-.1.2s-.1-.1-.1-.2c0-.5-.1-1-.1-1.6l-.1-1.6h-.1zM708.2 619.4l-.1.9-.2 1.9c0 .1 0 .2-.1.2s-.1-.1-.1-.2l-.1-1.5c0-.4-.1-.8-.1-1.3v-.6l.2-1.8c0-.2 0-.4.1-.6 0-.1.1-.1.1-.1.1 0 .1.1.1.1.1.8.2 1.6.3 2.5-.1.3-.1.4-.1.5z"/><text transform="translate(708.909 626.447)" font-family="'Helvetica'" font-size="3.271">SOUND CLOUD</text></g></svg>