<?xml version="1.0" encoding="utf-8"?>
<!-- Generator: Adobe Illustrator 18.1.0, SVG Export Plug-In . SVG Version: 6.00 Build 0)  -->
<!DOCTYPE svg PUBLIC "-//W3C//DTD SVG 1.1//EN" "http://www.w3.org/Graphics/SVG/1.1/DTD/svg11.dtd">
<svg version="1.1" id="Layer_1" xmlns="http://www.w3.org/2000/svg" xmlns:xlink="http://www.w3.org/1999/xlink" x="0px" y="0px"
	 viewBox="705.1 608.4 30.7 20.2" enable-background="new 705.1 608.4 30.7 20.2" xml:space="preserve">
<g id="Vk1QwN_1_">
	<g>
		<path d="M734.7,619.3c0,0.2,0,0.4-0.1,0.6c-0.2,1.6-1.3,2.9-2.7,3.2c-0.2,0.1-0.5,0.1-0.7,0.1c-3.2,0-6.4,0-9.5,0
			c-0.3,0-0.5-0.2-0.5-0.5c0-4.2,0-8.4,0-12.6c0-0.3,0.1-0.4,0.3-0.5c0.5-0.2,1.1-0.4,1.6-0.5c0.2,0,0.3,0,0.5-0.1
			c0.1,0,0.2,0,0.2,0c0.1,0,0.1,0,0.2,0c0.4,0,0.8,0.1,1.2,0.2c1.3,0.4,2.3,1.1,3.1,2.3c0.7,1,1.2,2.1,1.4,3.4
			c0,0.2,0.1,0.4,0.1,0.6c0,0,0.1,0,0.1,0c0.7-0.3,1.4-0.4,2.1-0.1c1.4,0.5,2.2,1.5,2.5,3.2c0,0.2,0,0.4,0.1,0.6
			C734.7,619.2,734.7,619.2,734.7,619.3z"/>
		<path d="M706.4,619.4c0-0.2,0.1-0.4,0.1-0.7c0-0.3,0.1-0.7,0.1-1c0-0.1,0-0.2,0.1-0.2c0.1,0,0.1,0.1,0.1,0.1
			c0.1,0.6,0.2,1.1,0.2,1.7c0,0.2,0,0.5-0.1,0.7c0,0.4-0.1,0.7-0.1,1.1c0,0,0,0.1,0,0.1c0,0-0.1,0.1-0.1,0.1c0,0-0.1-0.1-0.1-0.1
			c0-0.2,0-0.3-0.1-0.5c0-0.4-0.1-0.8-0.1-1.2c0,0,0,0,0-0.1C706.4,619.5,706.4,619.4,706.4,619.4z"/>
		<path d="M720,615.8c0-1.4,0-2.5,0.1-3.5c0-0.6,0-1.2,0-1.8c0-0.2,0.2-0.4,0.4-0.4c0.2,0,0.4,0.2,0.4,0.4c0,0.7,0,1.4,0,2.2
			c0,1.9,0.1,3.7,0.1,5.6c0,0.9,0,1.8-0.1,2.7c0,0.6-0.1,1.2-0.1,1.8c0,0.3-0.2,0.4-0.4,0.5c-0.2,0-0.4-0.2-0.4-0.4
			c0-0.7-0.1-1.4-0.1-2.1C719.9,618.9,720,617.1,720,615.8z"/>
		<path d="M719.7,615.4c0,1,0,1.9,0.1,2.9c0,1.1,0,2.3-0.1,3.4c0,0.3,0,0.7,0,1c0,0.2-0.2,0.4-0.3,0.4c-0.2,0-0.3-0.2-0.4-0.4
			c0-1-0.1-2.1-0.1-3.1c0-0.8,0-1.5,0-2.3c0-0.5,0-1,0-1.5c0-1.2,0-2.4,0.1-3.5c0-0.4,0-0.8,0-1.1c0-0.2,0.1-0.4,0.3-0.4
			c0.2,0,0.3,0.2,0.3,0.4c0,1.3,0,2.6,0.1,3.9C719.7,615.2,719.7,615.3,719.7,615.4C719.7,615.4,719.7,615.4,719.7,615.4z"/>
		<path d="M718.5,616c0,1.1,0.1,2.2,0.1,3.4c0,0.3,0,0.7,0,1c0,0.5-0.1,1-0.1,1.5c0,0.3,0,0.6,0,0.9c0,0.2-0.2,0.4-0.3,0.4
			c-0.2,0-0.3-0.2-0.3-0.4c0-0.5,0-1-0.1-1.5c0-0.6-0.1-1.2-0.1-1.8c0-0.4,0-0.7,0-1.1c0-0.4,0-0.9,0-1.3c0-0.9,0-1.8,0.1-2.6
			c0-0.6,0-1.3,0-1.9c0-0.2,0.1-0.4,0.3-0.4c0.2,0,0.3,0.2,0.3,0.4C718.4,613.7,718.5,614.8,718.5,616
			C718.5,616,718.5,616,718.5,616z"/>
		<path d="M716.5,616c0-1.1,0-2.2,0.1-3.4c0-0.1,0-0.3,0-0.4c0-0.2,0.1-0.3,0.3-0.3c0.2,0,0.3,0.1,0.3,0.3c0,0.4,0,0.8,0,1.2
			c0,1.3,0.1,2.6,0.1,3.9c0,0.7,0.1,1.3,0.1,2c0,0.5,0,0.9-0.1,1.4c0,0.6-0.1,1.3-0.1,1.9c0,0.1,0,0.2,0,0.2c0,0.2-0.1,0.3-0.3,0.3
			c-0.2,0-0.3-0.1-0.3-0.3c0-0.6-0.1-1.1-0.1-1.7c0-0.6-0.1-1.1-0.1-1.7c0-0.4,0-0.8,0-1.2c0-0.5,0-1,0-1.6
			C716.5,616.5,716.5,616.3,716.5,616C716.5,616,716.5,616,716.5,616z"/>
		<path d="M715.4,616.4c0-1,0-2,0.1-3.1c0-0.4,0-0.8,0-1.2c0-0.2,0.1-0.4,0.3-0.3c0.2,0,0.3,0.1,0.3,0.4c0,1.1,0.1,2.3,0.1,3.4
			c0,1.3,0.1,2.5,0.1,3.8c0,0.5,0,1-0.1,1.5c0,0.6-0.1,1.1-0.1,1.7c0,0.1,0,0.2,0,0.3c0,0.2-0.1,0.3-0.3,0.3c-0.1,0-0.3-0.1-0.3-0.3
			c0-0.3,0-0.7-0.1-1c0-0.8-0.1-1.6-0.1-2.3c0-0.6,0-1.2,0-1.8C715.3,617.3,715.4,616.9,715.4,616.4z"/>
		<path d="M714.2,615.9c0-0.8,0-1.9,0.1-3c0-0.2,0-0.4,0-0.6c0-0.2,0.1-0.3,0.2-0.3c0.1,0,0.2,0.1,0.2,0.3c0,0.7,0,1.4,0.1,2.1
			c0,1.1,0.1,2.2,0.1,3.3c0,0.6,0,1.2,0,1.8c0,0.4,0,0.9-0.1,1.3c0,0.5-0.1,1.1-0.1,1.6c0,0.2,0,0.4,0,0.6c0,0.2-0.1,0.3-0.3,0.3
			c-0.1,0-0.2-0.1-0.2-0.3c0-0.8-0.1-1.6-0.1-2.4c0-0.3,0-0.6-0.1-1c0-0.3,0-0.6,0-0.9C714.2,617.8,714.2,617,714.2,615.9z"/>
		<path d="M713.1,616.3c0-1.1,0.1-2.3,0.1-3.4c0-0.2,0.1-0.3,0.2-0.3c0.1,0,0.2,0.1,0.2,0.3c0,0.2,0,0.4,0,0.5
			c0,0.9,0.1,1.9,0.1,2.8c0,1,0.1,2.1,0.1,3.1c0,0.4,0,0.7-0.1,1.1c0,0.5-0.1,1-0.1,1.5c0,0.3,0,0.7-0.1,1c0,0.2-0.1,0.3-0.2,0.3
			c-0.1,0-0.2-0.1-0.2-0.3c0-0.5-0.1-0.9-0.1-1.4c0-0.7-0.1-1.4-0.1-2.1c0-0.1,0-0.2,0-0.2c0-0.8,0-1.7,0.1-2.5
			C713.1,616.6,713.1,616.5,713.1,616.3C713.1,616.3,713.1,616.3,713.1,616.3z"/>
		<path d="M711.9,619.4c0-0.8,0.1-1.6,0.1-2.5c0-0.6,0-1.2,0.1-1.8c0-0.4,0-0.7,0-1.1c0-0.1,0.1-0.2,0.2-0.2c0.1,0,0.2,0.1,0.2,0.2
			c0,0.1,0,0.3,0,0.4c0.1,1.2,0.1,2.5,0.2,3.7c0,0.3,0,0.7,0,1c0,0.4,0,0.9-0.1,1.3c0,0.6-0.1,1.1-0.1,1.7c0,0.2,0,0.4,0,0.6
			c0,0.1-0.1,0.2-0.2,0.2c-0.1,0-0.2-0.1-0.2-0.2c0-0.7-0.1-1.4-0.1-2.1c0-0.4-0.1-0.8-0.1-1.2C711.9,619.6,711.9,619.5,711.9,619.4
			C711.9,619.4,711.9,619.4,711.9,619.4z"/>
		<path d="M711.6,619.5c0,0.5-0.1,0.9-0.1,1.4c0,0.6-0.1,1.3-0.1,1.9c0,0.1,0,0.2,0,0.2c0,0.1-0.1,0.2-0.2,0.2c-0.1,0-0.2,0-0.2-0.2
			c0-0.2,0-0.3,0-0.5c-0.1-1-0.1-1.9-0.2-2.9c0-0.3,0-0.7,0-1c0-0.5,0.1-0.9,0.1-1.4c0-0.3,0-0.7,0.1-1c0-0.2,0.1-0.3,0.3-0.2
			c0.1,0,0.1,0.1,0.1,0.2c0,0.4,0.1,0.9,0.1,1.3c0,0.6,0.1,1.2,0.1,1.8C711.6,619.3,711.6,619.4,711.6,619.5z"/>
		<path d="M710.5,619.4c0,0.4-0.1,0.8-0.1,1.2c0,0.6-0.1,1.2-0.1,1.8c0,0.2,0,0.3,0,0.5c0,0.1-0.1,0.2-0.2,0.2
			c-0.1,0-0.2-0.1-0.2-0.2c0-0.2,0-0.4,0-0.7c-0.1-0.9-0.1-1.8-0.2-2.7c0-0.3,0-0.5,0-0.8c0-0.6,0.1-1.2,0.1-1.8c0-0.3,0-0.7,0.1-1
			c0-0.1,0.1-0.2,0.2-0.2c0.1,0,0.1,0.1,0.2,0.2c0.1,1,0.2,2,0.2,3.1C710.4,619.1,710.4,619.3,710.5,619.4z"/>
		<path d="M708.5,619.5c0-0.3,0-0.7,0.1-1c0-0.5,0.1-1.1,0.1-1.6c0-0.3,0-0.6,0.1-0.8c0-0.1,0-0.2,0.1-0.2c0.1,0,0.1,0.1,0.1,0.1
			c0,0.3,0.1,0.6,0.1,0.9c0.1,0.6,0.1,1.3,0.2,1.9c0.1,0.5,0,0.9,0,1.4c-0.1,0.6-0.1,1.2-0.2,1.9c0,0.2,0,0.4-0.1,0.6
			c0,0.1,0,0.2-0.1,0.2c-0.1,0-0.1-0.1-0.1-0.2c0-0.5-0.1-1-0.1-1.6c0-0.5-0.1-1.1-0.1-1.6C708.5,619.5,708.5,619.5,708.5,619.5z"/>
		<path d="M708.2,619.4c0,0.3-0.1,0.6-0.1,0.9c-0.1,0.6-0.1,1.3-0.2,1.9c0,0.1,0,0.2-0.1,0.2c-0.1,0-0.1-0.1-0.1-0.2
			c0-0.5-0.1-1-0.1-1.5c0-0.4-0.1-0.8-0.1-1.3c0-0.2,0-0.4,0-0.6c0.1-0.6,0.1-1.2,0.2-1.8c0-0.2,0-0.4,0.1-0.6
			c0-0.1,0.1-0.1,0.1-0.1c0.1,0,0.1,0.1,0.1,0.1c0.1,0.8,0.2,1.6,0.3,2.5C708.2,619.2,708.2,619.3,708.2,619.4z"/>
		<text transform="matrix(1 0 0 1 708.9089 626.4471)" font-family="'Helvetica'" font-size="3.2709">SOUND CLOUD</text>
	</g>
</g>
</svg>
